<svg width="257" height="123" viewBox="0 0 257 123" fill="none" xmlns="http://www.w3.org/2000/svg">
<path d="M21.3837 24.5964V0.626386C21.3837 0.145067 20.8624 -0.156504 20.445 0.085154L0.938667 11.515C0.35749 11.8505 0 12.4696 0 13.1407V37.1107L20.1335 48.928C20.9084 49.3753 21.861 49.3753 22.6359 48.928L42.4559 37.6519C42.8733 37.4103 42.8733 36.8091 42.4559 36.5675L21.3837 24.5964Z" fill="black"/>
<path d="M42.4559 37.6496L22.6359 48.9257C21.861 49.373 20.9084 49.373 20.1335 48.9257L0 37.1084V60.3555C0 61.4739 0.597151 62.5064 1.56378 63.0656L20.1335 73.8004C21.1021 74.3596 21.6673 74.3596 22.6359 73.8004L41.2056 63.0656C42.1743 62.5064 42.7694 61.4739 42.7694 60.3555V37.1084C42.7674 37.3201 42.6636 37.5298 42.4559 37.6496Z" fill="#888888"/>
<path d="M64.1533 24.5967H79.7992C88.4649 24.5967 92.9685 28.3114 92.9685 34.277C92.9685 38.497 90.9434 41.4808 87.0029 42.2117V42.2676C91.6184 42.9427 94.3745 46.0942 94.3745 50.8794C94.3745 57.52 90.2663 61.6282 81.0933 61.6282H64.1533V24.5967ZM80.4163 40.4662C84.8061 40.4662 86.945 38.5529 86.945 35.2875C86.945 31.9682 84.8081 29.8852 79.7412 29.8852H70.9058V40.4662H80.4163ZM80.9795 56.3377C86.0443 56.3377 87.9576 53.9731 87.9576 50.2044C87.9576 46.9969 85.3693 44.858 80.7538 44.858H70.9058V56.3397H80.9795V56.3377Z" fill="black"/>
<path d="M122.617 48.9639H101.794C102.132 54.3104 105.113 57.1803 109.843 57.1803C113.895 57.1803 116.653 55.3789 116.935 52.1155H122.619C122.393 58.3067 117.328 62.0774 109.731 62.0774C100.951 62.0774 95.4351 56.675 95.4351 47.9514C95.4351 38.9461 100.951 33.374 109.731 33.374C117.61 33.374 122.619 38.0454 122.619 46.7111V48.9639H122.617ZM116.933 44.7439C116.933 40.5798 114.344 38.2711 109.785 38.2711C105.451 38.2711 102.695 40.5219 101.962 45.1374H116.933V44.7439Z" fill="black"/>
<path d="M123.677 47.7257C123.677 38.8343 129.249 33.374 137.633 33.374C145.4 33.374 150.465 37.8756 150.465 45.2492H144.781C144.725 41.0851 142.025 38.5527 137.803 38.5527C132.964 38.5527 129.98 41.9858 129.98 47.7257C129.98 53.4096 132.908 56.8987 137.577 56.8987C142.023 56.8987 144.781 54.4222 144.837 50.314H150.521C150.521 57.7435 145.23 62.0774 137.295 62.0774C129.135 62.0774 123.677 56.6191 123.677 47.7257Z" fill="black"/>
<path d="M151.401 47.7816C151.401 38.8902 157.085 33.374 165.921 33.374C174.812 33.374 180.496 38.8902 180.496 47.7816C180.496 56.6171 174.812 62.0774 165.921 62.0774C157.085 62.0774 151.401 56.6191 151.401 47.7816ZM174.195 47.7816C174.195 42.0977 171.044 38.5527 165.923 38.5527C160.802 38.5527 157.706 42.0977 157.706 47.7816C157.706 53.4096 160.802 56.8987 165.923 56.8987C171.044 56.8987 174.195 53.4096 174.195 47.7816Z" fill="black"/>
<path d="M182.454 33.8254H188.757L188.531 41.141H188.587C189.825 36.3578 193.202 33.374 198.267 33.374C203.67 33.374 207.161 36.188 207.834 40.6897H207.89C208.902 36.188 212.279 33.374 217.57 33.374C223.761 33.374 227.306 37.3704 227.306 43.8991V61.626H221.003V45.3051C221.003 41.2529 219.034 38.7764 215.263 38.7764C210.873 38.7764 208.059 42.0398 208.059 47.8375V61.626H201.756V45.1933C201.756 41.2529 199.673 38.7784 195.905 38.7784C191.627 38.7784 188.757 42.0977 188.757 48.0632V61.626H182.454V33.8254Z" fill="black"/>
<path d="M256.239 48.9639H235.417C235.754 54.3104 238.736 57.1803 243.465 57.1803C247.517 57.1803 250.276 55.3789 250.557 52.1155H256.241C256.015 58.3067 250.951 62.0774 243.353 62.0774C234.574 62.0774 229.058 56.675 229.058 47.9514C229.058 38.9461 234.574 33.374 243.353 33.374C251.232 33.374 256.241 38.0454 256.241 46.7111V48.9639H256.239ZM250.555 44.7439C250.555 40.5798 247.967 38.2711 243.407 38.2711C239.073 38.2711 236.317 40.5219 235.584 45.1374H250.555V44.7439Z" fill="black"/>
<path d="M78.6672 122.272C76.1052 122.272 73.8727 121.631 71.9698 120.349C70.0794 119.066 68.6118 117.31 67.5671 115.081C66.5224 112.852 66 110.312 66 107.461C66 104.584 66.5286 102.025 67.5857 99.784C68.6553 97.5426 70.1354 95.7868 72.0258 94.5167C73.9162 93.2341 76.1114 92.5929 78.6113 92.5929C80.5266 92.5929 82.2616 92.9664 83.8162 93.7136C85.3709 94.4482 86.6519 95.488 87.6593 96.8328C88.6792 98.1652 89.3197 99.7217 89.5808 101.502H86.2228C85.8746 99.8836 85.0351 98.5014 83.7043 97.3558C82.386 96.1977 80.7069 95.6187 78.6672 95.6187C76.839 95.6187 75.2222 96.1168 73.8168 97.113C72.4114 98.0967 71.3107 99.4727 70.5147 101.241C69.7311 102.997 69.3394 105.033 69.3394 107.349C69.3394 109.677 69.7249 111.738 70.496 113.531C71.2671 115.312 72.3492 116.706 73.7421 117.715C75.1475 118.724 76.7892 119.228 78.6672 119.228C79.9358 119.228 81.0925 118.991 82.1372 118.518C83.1944 118.033 84.0774 117.348 84.7863 116.464C85.5077 115.579 85.9927 114.527 86.2415 113.307H89.5995C89.3508 115.038 88.7351 116.582 87.7526 117.939C86.7825 119.284 85.5201 120.342 83.9655 121.114C82.4233 121.886 80.6572 122.272 78.6672 122.272Z" fill="black"/>
<path d="M107.854 122.272C105.379 122.272 103.19 121.644 101.287 120.386C99.3969 119.128 97.9169 117.391 96.8473 115.175C95.7777 112.946 95.2429 110.374 95.2429 107.461C95.2429 104.522 95.7777 101.938 96.8473 99.7092C97.9169 97.4679 99.3969 95.7246 101.287 94.4794C103.19 93.2217 105.379 92.5929 107.854 92.5929C110.329 92.5929 112.512 93.2217 114.402 94.4794C116.293 95.737 117.773 97.4803 118.842 99.7092C119.924 101.938 120.465 104.522 120.465 107.461C120.465 110.374 119.931 112.946 118.861 115.175C117.791 117.391 116.305 119.128 114.402 120.386C112.512 121.644 110.329 122.272 107.854 122.272ZM107.854 119.228C109.844 119.228 111.529 118.692 112.91 117.622C114.29 116.551 115.335 115.125 116.044 113.344C116.765 111.564 117.126 109.602 117.126 107.461C117.126 105.319 116.765 103.351 116.044 101.558C115.335 99.7653 114.29 98.3271 112.91 97.2437C111.529 96.1604 109.844 95.6187 107.854 95.6187C105.877 95.6187 104.191 96.1604 102.798 97.2437C101.418 98.3271 100.367 99.7653 99.6456 101.558C98.9367 103.351 98.5822 105.319 98.5822 107.461C98.5822 109.602 98.9367 111.564 99.6456 113.344C100.367 115.125 101.418 116.551 102.798 117.622C104.179 118.692 105.864 119.228 107.854 119.228Z" fill="black"/>
<path d="M127.792 121.675V92.9851H131.132V121.675H127.792ZM129.49 88.0541C128.806 88.0541 128.222 87.8237 127.736 87.363C127.251 86.8898 127.009 86.3232 127.009 85.6633C127.009 85.0033 127.251 84.443 127.736 83.9822C128.222 83.5091 128.806 83.2725 129.49 83.2725C130.174 83.2725 130.759 83.5091 131.244 83.9822C131.729 84.443 131.971 85.0033 131.971 85.6633C131.971 86.3232 131.729 86.8898 131.244 87.363C130.759 87.8237 130.174 88.0541 129.49 88.0541Z" fill="black"/>
<path d="M143.235 103.744V121.675H139.914V92.9851H143.141V97.4865H143.44C144.112 96.0172 145.156 94.8405 146.574 93.9564C148.004 93.0598 149.77 92.6115 151.872 92.6115C153.8 92.6115 155.492 93.0162 156.947 93.8256C158.414 94.6226 159.552 95.7993 160.361 97.3558C161.182 98.9123 161.592 100.824 161.592 103.09V121.675H158.271V103.295C158.271 100.942 157.612 99.0804 156.294 97.7107C154.988 96.3409 153.234 95.6561 151.033 95.6561C149.528 95.6561 148.191 95.9798 147.022 96.6273C145.853 97.2749 144.926 98.2088 144.242 99.4291C143.571 100.637 143.235 102.075 143.235 103.744Z" fill="black"/>
<path d="M189.59 99.2796L186.549 100.139C186.25 99.2796 185.827 98.5014 185.28 97.8041C184.733 97.1068 184.018 96.5526 183.135 96.1417C182.264 95.7308 181.182 95.5253 179.889 95.5253C177.948 95.5253 176.356 95.9861 175.113 96.9075C173.869 97.829 173.247 99.0182 173.247 100.475C173.247 101.708 173.67 102.71 174.516 103.482C175.374 104.242 176.692 104.846 178.471 105.294L182.799 106.359C185.199 106.944 186.996 107.872 188.19 109.142C189.397 110.412 190 112.006 190 113.923C190 115.542 189.552 116.98 188.657 118.238C187.761 119.496 186.511 120.486 184.907 121.208C183.315 121.918 181.468 122.272 179.366 122.272C176.568 122.272 174.261 121.644 172.445 120.386C170.629 119.116 169.466 117.285 168.956 114.895L172.146 114.11C172.557 115.816 173.359 117.105 174.553 117.976C175.759 118.848 177.345 119.284 179.31 119.284C181.512 119.284 183.271 118.792 184.59 117.808C185.908 116.812 186.567 115.567 186.567 114.073C186.567 112.915 186.182 111.943 185.411 111.159C184.64 110.362 183.47 109.777 181.903 109.403L177.221 108.283C174.733 107.685 172.893 106.738 171.699 105.443C170.505 104.148 169.908 102.542 169.908 100.624C169.908 99.0431 170.337 97.6546 171.195 96.4592C172.053 95.2514 173.235 94.305 174.74 93.6202C176.245 92.9353 177.961 92.5929 179.889 92.5929C182.513 92.5929 184.608 93.1906 186.176 94.386C187.755 95.5689 188.893 97.2001 189.59 99.2796Z" fill="black"/>
</svg>
