<?xml version="1.0" standalone="no"?>
<!DOCTYPE svg PUBLIC "-//W3C//DTD SVG 20010904//EN"
 "http://www.w3.org/TR/2001/REC-SVG-20010904/DTD/svg10.dtd">
<svg version="1.0" xmlns="http://www.w3.org/2000/svg"
 width="700.000000pt" height="700.000000pt" viewBox="0 0 700.000000 700.000000"
 preserveAspectRatio="xMidYMid meet">
<metadata>
Created by potrace 1.14, written by Peter Selinger 2001-2017
</metadata>
<g transform="translate(0.000000,700.000000) scale(0.100000,-0.100000)"
fill="#000000" stroke="none">
<path d="M4140 5783 c0 -17 -5 -21 -22 -17 -57 11 -433 24 -452 15 -5 -2 -39
-5 -75 -7 -64 -2 -130 -9 -181 -19 -14 -3 -38 -7 -55 -9 -86 -14 -102 -17
-125 -26 -14 -5 -34 -11 -45 -13 -11 -1 -26 -6 -32 -10 -7 -5 -17 -5 -23 -2
-5 3 -10 2 -10 -3 0 -4 -26 -19 -57 -32 -81 -32 -227 -102 -233 -110 -3 -4
-25 -18 -50 -30 -25 -12 -47 -26 -50 -29 -3 -3 -22 -15 -42 -26 -21 -11 -38
-23 -38 -27 0 -5 -4 -8 -10 -8 -9 0 -30 -15 -64 -45 -6 -6 -33 -28 -61 -50
-66 -52 -119 -102 -220 -205 -86 -88 -109 -114 -169 -190 -20 -25 -41 -51 -47
-58 -89 -108 -266 -424 -332 -592 -63 -164 -122 -345 -133 -408 -3 -15 -7 -34
-10 -42 -5 -13 -18 -77 -29 -135 -12 -65 -27 -179 -32 -240 -12 -143 -5 -447
12 -545 3 -14 12 -67 21 -119 9 -52 22 -112 30 -134 8 -21 11 -43 8 -48 -3 -5
0 -9 5 -9 6 0 11 -7 11 -15 0 -21 44 -151 75 -220 41 -93 108 -229 114 -235 4
-3 19 -25 35 -50 73 -113 203 -259 306 -341 49 -40 226 -159 235 -159 3 0 24
-12 48 -27 23 -14 44 -26 47 -26 3 0 37 -15 75 -32 57 -26 126 -53 155 -60 3
-1 14 -5 25 -9 22 -9 49 -17 52 -17 2 0 17 -5 35 -10 29 -9 66 -19 133 -36 11
-2 29 -6 40 -7 11 -2 20 -4 20 -5 0 -2 9 -4 20 -6 55 -9 103 -16 135 -20 19
-1 35 -4 35 -5 0 -1 18 -3 40 -5 22 -1 40 -4 40 -5 0 -8 481 -14 494 -5 6 3
11 0 11 -7 0 -8 3 -9 8 -2 4 5 25 10 47 9 22 -1 45 1 50 4 6 3 26 7 45 7 53 3
163 14 180 19 8 2 38 7 65 11 68 9 90 12 90 14 0 1 11 3 25 5 55 9 66 11 78
19 6 4 17 4 22 1 6 -3 13 1 16 9 3 9 9 14 13 12 4 -3 50 16 102 41 52 25 99
46 106 46 7 0 14 6 17 14 3 7 14 13 25 13 11 0 26 7 35 15 8 8 17 15 21 15 4
0 13 7 22 15 8 8 19 13 24 10 5 -4 9 -1 9 4 0 14 75 61 96 61 10 0 15 3 11 6
-3 4 1 13 9 21 12 12 17 13 30 2 8 -7 14 -8 12 -2 -3 11 62 76 69 69 3 -2 13
3 22 12 10 9 27 25 37 34 10 9 25 24 33 33 7 9 19 14 27 11 12 -5 12 -2 3 17
-9 17 -9 20 1 11 9 -9 21 -3 48 26 28 28 44 37 65 34 24 -2 25 -1 12 12 -16
17 -19 25 -7 21 10 -3 62 38 62 49 0 5 12 20 26 33 20 19 22 26 12 34 -9 6 -8
7 5 3 13 -4 23 4 38 29 12 19 26 32 32 28 6 -3 7 -1 3 5 -4 6 5 21 19 34 14
12 25 28 25 35 0 7 5 13 11 13 5 0 8 4 5 9 -3 5 1 11 9 15 9 3 12 12 8 22 -5
14 -3 16 11 11 14 -6 16 -3 11 13 -5 16 -3 19 10 14 13 -5 16 -2 13 17 -2 15
2 23 10 22 6 -2 12 2 12 8 0 7 9 9 23 6 21 -6 21 -6 3 8 -11 8 -14 15 -8 15 7
0 12 7 12 15 0 8 4 15 10 15 5 0 9 3 9 7 -4 22 2 35 14 30 8 -3 14 1 14 9 0 8
-4 14 -8 14 -4 0 -6 8 -4 18 1 10 9 16 20 14 12 -2 16 1 12 11 -3 9 0 18 8 21
9 3 12 14 9 30 -2 15 0 26 5 26 5 0 15 17 22 38 7 20 19 42 27 48 12 9 12 13
2 19 -7 4 -8 10 -3 14 16 11 54 103 49 117 -3 7 -1 16 3 18 5 3 11 18 14 33 3
16 11 42 18 58 7 17 13 32 13 35 1 3 5 11 10 18 4 7 5 16 2 19 -3 3 0 15 5 26
20 36 64 199 74 276 2 13 10 28 17 32 11 7 11 9 0 9 -8 0 -10 5 -5 13 10 15
12 30 15 89 2 27 5 48 8 48 3 0 6 15 7 33 3 97 8 135 16 130 5 -3 4 4 -2 16
-7 11 -8 21 -4 21 4 0 8 61 8 135 0 74 -4 135 -9 135 -5 0 -2 8 5 17 8 9 9 14
2 10 -8 -5 -11 4 -9 30 2 21 1 42 -2 47 -3 5 -7 23 -8 40 -6 76 -16 139 -24
161 -6 15 -6 27 0 30 6 4 3 16 -5 29 -9 13 -18 34 -20 47 -9 48 -48 156 -81
229 -19 41 -32 80 -29 88 2 7 1 11 -4 8 -8 -5 -36 42 -33 57 1 4 -2 7 -7 7 -5
0 -11 8 -15 18 -3 9 -15 31 -26 47 -11 17 -23 37 -27 45 -3 8 -9 17 -12 20
-12 10 -71 89 -71 94 0 19 -214 233 -241 241 -10 4 -19 13 -19 21 0 8 -4 13
-9 9 -6 -3 -13 1 -18 8 -7 12 -113 81 -216 141 -18 10 -35 23 -39 30 -4 6 -8
8 -8 4 0 -4 -15 1 -32 12 -18 11 -44 25 -58 31 -65 28 -96 44 -102 53 -4 6 -8
7 -8 2 0 -5 -6 -4 -12 1 -12 9 -127 57 -138 58 -5 0 -47 16 -95 35 -45 18 -81
30 -100 33 -20 4 -29 7 -90 30 -16 7 -33 12 -37 13 -5 1 -11 2 -14 3 -4 0 0 9
7 19 11 14 10 13 -9 -2 -14 -12 -22 -15 -22 -6 0 6 -6 10 -14 7 -8 -3 -17 -3
-21 1 -4 4 -10 7 -13 7 -4 1 -17 6 -29 13 -13 7 -23 11 -23 8 0 -3 -21 1 -47
9 -26 8 -48 13 -49 12 0 -1 -7 -11 -13 -22 -7 -11 -10 -13 -8 -4 3 9 1 22 -4
30 -7 11 -9 9 -9 -8z"/>
<path d="M5395 5609 c-4 -6 -5 -12 -2 -15 2 -3 7 2 10 11 7 17 1 20 -8 4z"/>
<path d="M5035 5520 c3 -5 8 -10 11 -10 2 0 4 5 4 10 0 6 -5 10 -11 10 -5 0
-7 -4 -4 -10z"/>
<path d="M5580 5286 c0 -2 8 -10 18 -17 15 -13 16 -12 3 4 -13 16 -21 21 -21
13z"/>
<path d="M5600 5200 c-9 -6 -10 -10 -3 -10 6 0 15 5 18 10 8 12 4 12 -15 0z"/>
<path d="M5836 4873 c-6 -14 -5 -15 5 -6 7 7 10 15 7 18 -3 3 -9 -2 -12 -12z"/>
<path d="M6076 4847 c3 -10 9 -15 12 -12 3 3 0 11 -7 18 -10 9 -11 8 -5 -6z"/>
<path d="M6236 4767 c3 -10 9 -15 12 -12 3 3 0 11 -7 18 -10 9 -11 8 -5 -6z"/>
<path d="M6266 4242 c-3 -5 1 -9 9 -9 8 0 12 4 9 9 -3 4 -7 8 -9 8 -2 0 -6 -4
-9 -8z"/>
<path d="M6316 4153 c-6 -14 -5 -15 5 -6 7 7 10 15 7 18 -3 3 -9 -2 -12 -12z"/>
<path d="M6236 3058 c3 -5 10 -6 15 -3 13 9 11 12 -6 12 -8 0 -12 -4 -9 -9z"/>
<path d="M6156 2358 c3 -5 10 -6 15 -3 13 9 11 12 -6 12 -8 0 -12 -4 -9 -9z"/>
<path d="M5440 2080 c-9 -6 -10 -10 -3 -10 6 0 15 5 18 10 8 12 4 12 -15 0z"/>
<path d="M5253 1715 c0 -8 4 -12 9 -9 5 3 6 10 3 15 -9 13 -12 11 -12 -6z"/>
</g>
</svg>
